# xmcd
#
# Track frame offsets:
#	150
#	12676
#	24606
#	39761
#	52517
#	68597
#	84506
#	102497
#	112806
#	127256
#	137316
#	155254
#
# Disc length: 2203 seconds
#
# Revision: 1
# Processed by: cddbd v1.4PL0 Copyright (c) Steve Scherf et al.
# Submitted via: CDmax 1.8
#
DISCID=8b08990c
DTITLE=Hand, James - Evil Things
DYEAR=1999
DGENRE=Country
TTITLE0=In The Corner, At The Table, By The Jukebox
TTITLE1=Baby, Baby, Baby (Don't Tell Me That)
TTITLE2=I Hope She Loves You (Enough To Tell  A Lie)
TTITLE3=Just Not Worth The Trouble
TTITLE4=Why Didn't You Hold Me?
TTITLE5=A Night Like Any Other
TTITLE6=Evil Things
TTITLE7=The Truth Will Set You Free
TTITLE8=Last River To Cross
TTITLE9=Cuttin' Down (On My Runnin' Around)
TTITLE10=Over There, That's Frank
TTITLE11=Do You Belong?
EXTD=
EXTT0=
EXTT1=
EXTT2=
EXTT3=
EXTT4=
EXTT5=
EXTT6=
EXTT7=
EXTT8=
EXTT9=
EXTT10=
EXTT11=
PLAYORDER=
